# xmcd
#
# Track frame offsets:
#	150
#	20550
#	39152
#	57902
#	74777
#	91202
#	108602
#	124354
#	141004
#	161404
#	180006
#	198756
#	215631
#	232056
#	249456
#	265208
#
# Disc length: 3758
#
# Revision: 2
# Processed by: cddbd v1.5.1PL0 Copyright (c) Steve Scherf et al.
# Submitted via: kTunes Pro (development) 1.0patch39.1
#
DISCID=e30eac10
DTITLE=Various Artist - Party Tyme Karaoke - Guy Country I
DYEAR=2003
DGENRE=Country
TTITLE0=Lonestar - Amazed
TTITLE1=Garth Brooks - Two Pina Coladas
TTITLE2=Alan Jackson - Where I Come From
TTITLE3=Toby Keith - How Do You Like Me Now
TTITLE4=Brooks and Dunn - Ain't Nothing 'Bout You
TTITLE5=Steve Holy - Good Morning Beautiful
TTITLE6=Tim McGraw - I Like It, I Love It
TTITLE7=Chad Brock - Yes
TTITLE8=Lonestar (Vocal) - Amazed
TTITLE9=Garth Brooks (Vocal) - Two Pina Coladas
TTITLE10=Alan Jackson (Vocal) - Where I Come From
TTITLE11=Toby Keith (Vocal) - How Do You Like Me Now
TTITLE12=Brooks and Dunn (Vocal) - Ain't Nothing 'Bout You
TTITLE13=Steve Holy (Vocal) - Good Morning Beautiful
TTITLE14=Tim McGraw (Vocal) - I Like It, I Love It
TTITLE15=Chad Brock (Vocal) - Yes
EXTD=
EXTT0=
EXTT1=
EXTT2=
EXTT3=
EXTT4=
EXTT5=
EXTT6=
EXTT7=
EXTT8=
EXTT9=
EXTT10=
EXTT11=
EXTT12=
EXTT13=
EXTT14=
EXTT15=
PLAYORDER=
